<?xml version="1.0" encoding="iso-8859-1"?>
<!-- Generator: Adobe Illustrator 16.0.0, SVG Export Plug-In . SVG Version: 6.00 Build 0)  -->
<!DOCTYPE svg PUBLIC "-//W3C//DTD SVG 1.1//EN" "http://www.w3.org/Graphics/SVG/1.1/DTD/svg11.dtd">
<svg version="1.1" xmlns="http://www.w3.org/2000/svg" xmlns:xlink="http://www.w3.org/1999/xlink" x="0px" y="0px" width="720px"
	 height="456px" viewBox="0 0 720 456" style="enable-background:new 0 0 720 456;" xml:space="preserve">
<g id="sectors">
	<path style="opacity:0.8;fill:none;stroke:#0057A3;stroke-width:4.2;stroke-linejoin:round;stroke-miterlimit:10;" d="
		M460.013,350.339c-50.092,0.674-107.367,1.441-148.268,1.441c-13.062,0-6.645-10.083-12.374-10.083c-9.854,0-34.792,11-40.638,11
		c-30.557,0-62.639-2.444-86.472-31.473c-19.798-24.112-23.15-73.948-24.593-97.139
		M322.593,255.531c12.527,11.917,18.639,20.778,22.306,20.778s13.581-2.465,19.86-1.834c5.473,0.55,15.889,7.944,19.86,11.916
		c3.974,3.973,16.5,4.584,22.612,4.584c6.111,0,161.025-0.305,180.58-0.305c19.556,0,35.139,1.832,35.139,16.499
		s-13.139,42.166-69.666,42.166c-19.074,0-53.96,0.473-93.271,1.003
		M322.593,255.531c-8.117-7.722-42.404-39.304-67.118-62.412c-13.429-12.556-24.03-22.609-26.075-24.976
		c-2.655-3.074-10.613-15.35-18.967-28.47c-9.912-15.569-20.38-32.327-23.199-36.308c-5.194-7.333-14.361-8.86-25.361-7.027
		c-8.139,1.357-25.254,4.679-33.605,6.313l-4.284,1.021c-26.889,5.806-12.527,41.249-6.416,50.416
		c6.111,9.166,14.666,25.36,15.583,30.249c0.917,4.89,1.528,7.944,6.417,9.167c4.889,1.223,5.805,7.943,7.333,20.166
		c0.258,2.069,0.474,5.688,0.768,10.415"/>
</g>
<g id="Layer_1">
</g>
</svg>
